<?xml version="1.0" encoding="utf-8"?>
<!-- Generator: Avocode 2.3.2-e7da973 - http://avocode.com -->
<svg height="211" width="619" xmlns:xlink="http://www.w3.org/1999/xlink" xmlns="http://www.w3.org/2000/svg" viewBox="0 0 619 211">
    <path fill="#ffbd00" fill-rule="evenodd" d="M 181.16 30.16 C 181.16 30.16 181.16 60.28 181.16 60.28 C 181.16 60.28 166.06 60.28 166.06 60.28 C 166.06 60.28 166.06 120.56 166.06 120.56 C 166.06 120.56 45.28 120.56 45.28 120.56 C 45.28 120.56 30.19 120.56 30.19 120.56 C 30.19 120.56 15.09 120.56 15.09 120.56 C 15.09 120.56 15.09 75.34 15.09 75.34 C 15.09 75.34 30.19 75.34 30.19 75.34 C 30.19 75.34 30.19 45.22 30.19 45.22 C 30.19 45.22 45.28 45.22 45.28 45.22 C 45.28 45.22 45.28 30.16 45.28 30.16 C 45.28 30.16 120.78 30.16 120.78 30.16 C 120.78 30.16 120.78 15.06 120.78 15.06 C 120.78 15.06 196.28 15.06 196.28 15.06 C 196.28 15.06 196.28 30.16 196.28 30.16 C 196.28 30.16 181.16 30.16 181.16 30.16 Z" />
    <path fill="#d49f07" fill-rule="evenodd" d="M 181.16 120.56 C 181.16 120.56 181.16 60.28 181.16 60.28 C 181.16 60.28 196.28 60.28 196.28 60.28 C 196.28 60.28 196.28 30.16 196.28 30.16 C 196.28 30.16 211.38 30.16 211.38 30.16 C 211.38 30.16 211.38 15.06 211.38 15.06 C 211.38 15.06 241.56 15.06 241.56 15.06 C 241.56 15.06 241.56 30.16 241.56 30.16 C 241.56 30.16 256.66 30.16 256.66 30.16 C 256.66 30.16 256.66 60.28 256.66 60.28 C 256.66 60.28 271.75 60.28 271.75 60.28 C 271.75 60.28 271.75 120.56 271.75 120.56 C 271.75 120.56 181.16 120.56 181.16 120.56 Z" />
    <path fill="#bb8c08" fill-rule="evenodd" d="M 181.16 135.66 C 181.16 135.66 271.75 135.66 271.75 135.66 C 271.75 135.66 271.75 195.94 271.75 195.94 C 271.75 195.94 181.16 195.94 181.16 195.94 C 181.16 195.94 181.16 135.66 181.16 135.66 Z" />
    <path fill="#a57c08" fill-rule="evenodd" d="M 181.16 135.66 C 181.16 135.66 271.75 135.66 271.75 135.66 C 271.75 135.66 271.75 150.72 271.75 150.72 C 271.75 150.72 181.16 150.72 181.16 150.72 C 181.16 150.72 181.16 135.66 181.16 135.66 Z" />
    <path fill="#4f4f4f" fill-rule="evenodd" d="M 619 120.56 C 619 120.56 588.81 120.56 588.81 120.56 C 588.81 120.56 573.72 120.56 573.72 120.56 C 573.72 120.56 573.72 105.5 573.72 105.5 C 573.72 105.5 573.72 45.22 573.72 45.22 C 573.72 45.22 588.81 45.22 588.81 45.22 C 588.81 45.22 588.81 105.5 588.81 105.5 C 588.81 105.5 619 105.5 619 105.5 C 619 105.5 619 120.56 619 120.56 Z M 513.31 120.56 C 513.31 120.56 513.31 105.5 513.31 105.5 C 513.31 105.5 513.31 90.44 513.31 90.44 C 513.31 90.44 513.31 75.34 513.31 75.34 C 513.31 75.34 513.31 60.28 513.31 60.28 C 513.31 60.28 513.31 45.22 513.31 45.22 C 513.31 45.22 528.41 45.22 528.41 45.22 C 528.41 45.22 558.63 45.22 558.63 45.22 C 558.63 45.22 558.63 60.28 558.63 60.28 C 558.63 60.28 528.41 60.28 528.41 60.28 C 528.41 60.28 528.41 75.34 528.41 75.34 C 528.41 75.34 558.63 75.34 558.63 75.34 C 558.63 75.34 558.63 90.44 558.63 90.44 C 558.63 90.44 528.41 90.44 528.41 90.44 C 528.41 90.44 528.41 105.5 528.41 105.5 C 528.41 105.5 558.63 105.5 558.63 105.5 C 558.63 105.5 558.63 120.56 558.63 120.56 C 558.63 120.56 528.41 120.56 528.41 120.56 C 528.41 120.56 513.31 120.56 513.31 120.56 Z M 483.13 90.44 C 483.13 90.44 498.22 90.44 498.22 90.44 C 498.22 90.44 498.22 120.56 498.22 120.56 C 498.22 120.56 483.13 120.56 483.13 120.56 C 483.13 120.56 483.13 90.44 483.13 90.44 Z M 437.84 120.56 C 437.84 120.56 437.84 90.44 437.84 90.44 C 437.84 90.44 452.94 90.44 452.94 90.44 C 452.94 90.44 452.94 120.56 452.94 120.56 C 452.94 120.56 437.84 120.56 437.84 120.56 Z M 452.94 75.34 C 452.94 75.34 483.13 75.34 483.13 75.34 C 483.13 75.34 483.13 90.44 483.13 90.44 C 483.13 90.44 452.94 90.44 452.94 90.44 C 452.94 90.44 452.94 75.34 452.94 75.34 Z M 437.84 45.22 C 437.84 45.22 452.94 45.22 452.94 45.22 C 452.94 45.22 452.94 75.34 452.94 75.34 C 452.94 75.34 437.84 75.34 437.84 75.34 C 437.84 75.34 437.84 45.22 437.84 45.22 Z M 498.22 45.22 C 498.22 45.22 498.22 75.34 498.22 75.34 C 498.22 75.34 483.13 75.34 483.13 75.34 C 483.13 75.34 483.13 45.22 483.13 45.22 C 483.13 45.22 498.22 45.22 498.22 45.22 Z M 392.53 120.56 C 392.53 120.56 377.44 120.56 377.44 120.56 C 377.44 120.56 377.44 105.5 377.44 105.5 C 377.44 105.5 392.53 105.5 392.53 105.5 C 392.53 105.5 392.53 60.28 392.53 60.28 C 392.53 60.28 377.44 60.28 377.44 60.28 C 377.44 60.28 377.44 45.22 377.44 45.22 C 377.44 45.22 392.53 45.22 392.53 45.22 C 392.53 45.22 407.63 45.22 407.63 45.22 C 407.63 45.22 422.72 45.22 422.72 45.22 C 422.72 45.22 422.72 60.28 422.72 60.28 C 422.72 60.28 407.63 60.28 407.63 60.28 C 407.63 60.28 407.63 105.5 407.63 105.5 C 407.63 105.5 422.72 105.5 422.72 105.5 C 422.72 105.5 422.72 120.56 422.72 120.56 C 422.72 120.56 407.63 120.56 407.63 120.56 C 407.63 120.56 392.53 120.56 392.53 120.56 Z M 332.16 90.44 C 332.16 90.44 332.16 120.56 332.16 120.56 C 332.16 120.56 317.06 120.56 317.06 120.56 C 317.06 120.56 317.06 60.28 317.06 60.28 C 317.06 60.28 317.06 45.22 317.06 45.22 C 317.06 45.22 332.16 45.22 332.16 45.22 C 332.16 45.22 347.25 45.22 347.25 45.22 C 347.25 45.22 362.34 45.22 362.34 45.22 C 362.34 45.22 362.34 60.28 362.34 60.28 C 362.34 60.28 362.34 75.34 362.34 75.34 C 362.34 75.34 362.34 90.44 362.34 90.44 C 362.34 90.44 347.25 90.44 347.25 90.44 C 347.25 90.44 332.16 90.44 332.16 90.44 Z M 347.25 60.28 C 347.25 60.28 332.16 60.28 332.16 60.28 C 332.16 60.28 332.16 75.34 332.16 75.34 C 332.16 75.34 347.25 75.34 347.25 75.34 C 347.25 75.34 347.25 60.28 347.25 60.28 Z" />
    <path fill="#ffbd00" fill-rule="evenodd" d="M 603.91 150.72 C 603.91 150.72 603.91 211 603.91 211 C 603.91 211 588.81 211 588.81 211 C 588.81 211 588.81 150.72 588.81 150.72 C 588.81 150.72 573.72 150.72 573.72 150.72 C 573.72 150.72 573.72 135.66 573.72 135.66 C 573.72 135.66 588.81 135.66 588.81 135.66 C 588.81 135.66 603.91 135.66 603.91 135.66 C 603.91 135.66 619 135.66 619 135.66 C 619 135.66 619 150.72 619 150.72 C 619 150.72 603.91 150.72 603.91 150.72 Z M 513.31 211 C 513.31 211 513.31 195.94 513.31 195.94 C 513.31 195.94 543.5 195.94 543.5 195.94 C 543.5 195.94 543.5 180.84 543.5 180.84 C 543.5 180.84 558.63 180.84 558.63 180.84 C 558.63 180.84 558.63 195.94 558.63 195.94 C 558.63 195.94 558.63 211 558.63 211 C 558.63 211 543.5 211 543.5 211 C 543.5 211 513.31 211 513.31 211 Z M 528.41 165.78 C 528.41 165.78 543.5 165.78 543.5 165.78 C 543.5 165.78 543.5 180.84 543.5 180.84 C 543.5 180.84 528.41 180.84 528.41 180.84 C 528.41 180.84 528.41 165.78 528.41 165.78 Z M 513.31 150.72 C 513.31 150.72 513.31 135.66 513.31 135.66 C 513.31 135.66 528.41 135.66 528.41 135.66 C 528.41 135.66 558.63 135.66 558.63 135.66 C 558.63 135.66 558.63 150.72 558.63 150.72 C 558.63 150.72 528.41 150.72 528.41 150.72 C 528.41 150.72 528.41 165.78 528.41 165.78 C 528.41 165.78 513.31 165.78 513.31 165.78 C 513.31 165.78 513.31 150.72 513.31 150.72 Z M 452.94 211 C 452.94 211 452.94 195.94 452.94 195.94 C 452.94 195.94 452.94 180.84 452.94 180.84 C 452.94 180.84 452.94 165.78 452.94 165.78 C 452.94 165.78 452.94 150.72 452.94 150.72 C 452.94 150.72 452.94 135.66 452.94 135.66 C 452.94 135.66 468.03 135.66 468.03 135.66 C 468.03 135.66 498.22 135.66 498.22 135.66 C 498.22 135.66 498.22 150.72 498.22 150.72 C 498.22 150.72 468.03 150.72 468.03 150.72 C 468.03 150.72 468.03 165.78 468.03 165.78 C 468.03 165.78 498.22 165.78 498.22 165.78 C 498.22 165.78 498.22 180.84 498.22 180.84 C 498.22 180.84 468.03 180.84 468.03 180.84 C 468.03 180.84 468.03 195.94 468.03 195.94 C 468.03 195.94 498.22 195.94 498.22 195.94 C 498.22 195.94 498.22 211 498.22 211 C 498.22 211 468.03 211 468.03 211 C 468.03 211 452.94 211 452.94 211 Z M 422.72 180.84 C 422.72 180.84 392.53 180.84 392.53 180.84 C 392.53 180.84 392.53 211 392.53 211 C 392.53 211 377.44 211 377.44 211 C 377.44 211 377.44 180.84 377.44 180.84 C 377.44 180.84 377.44 165.78 377.44 165.78 C 377.44 165.78 377.44 135.66 377.44 135.66 C 377.44 135.66 392.53 135.66 392.53 135.66 C 392.53 135.66 392.53 165.78 392.53 165.78 C 392.53 165.78 422.72 165.78 422.72 165.78 C 422.72 165.78 422.72 135.66 422.72 135.66 C 422.72 135.66 437.84 135.66 437.84 135.66 C 437.84 135.66 437.84 165.78 437.84 165.78 C 437.84 165.78 437.84 180.84 437.84 180.84 C 437.84 180.84 437.84 211 437.84 211 C 437.84 211 422.72 211 422.72 211 C 422.72 211 422.72 180.84 422.72 180.84 Z M 317.06 211 C 317.06 211 317.06 150.72 317.06 150.72 C 317.06 150.72 317.06 135.66 317.06 135.66 C 317.06 135.66 332.16 135.66 332.16 135.66 C 332.16 135.66 362.34 135.66 362.34 135.66 C 362.34 135.66 362.34 150.72 362.34 150.72 C 362.34 150.72 332.16 150.72 332.16 150.72 C 332.16 150.72 332.16 195.94 332.16 195.94 C 332.16 195.94 362.34 195.94 362.34 195.94 C 362.34 195.94 362.34 211 362.34 211 C 362.34 211 332.16 211 332.16 211 C 332.16 211 317.06 211 317.06 211 Z" />
    <path fill="#964b32" fill-rule="evenodd" d="M 271.75 211 C 271.75 211 30.19 211 30.19 211 C 30.19 211 15.09 211 15.09 211 C 15.09 211 15.09 135.66 15.09 135.66 C 15.09 135.66 0 135.66 0 135.66 C 0 135.66 0 120.56 0 120.56 C 0 120.56 0 75.34 0 75.34 C 0 75.34 15.09 75.34 15.09 75.34 C 15.09 75.34 15.09 120.56 15.09 120.56 C 15.09 120.56 30.19 120.56 30.19 120.56 C 30.19 120.56 45.28 120.56 45.28 120.56 C 45.28 120.56 45.28 135.66 45.28 135.66 C 45.28 135.66 30.19 135.66 30.19 135.66 C 30.19 135.66 30.19 195.94 30.19 195.94 C 30.19 195.94 166.06 195.94 166.06 195.94 C 166.06 195.94 166.06 135.66 166.06 135.66 C 166.06 135.66 105.69 135.66 105.69 135.66 C 105.69 135.66 105.69 120.56 105.69 120.56 C 105.69 120.56 166.06 120.56 166.06 120.56 C 166.06 120.56 166.06 60.28 166.06 60.28 C 166.06 60.28 181.16 60.28 181.16 60.28 C 181.16 60.28 181.16 120.56 181.16 120.56 C 181.16 120.56 271.75 120.56 271.75 120.56 C 271.75 120.56 271.75 60.28 271.75 60.28 C 271.75 60.28 286.84 60.28 286.84 60.28 C 286.84 60.28 286.84 211 286.84 211 C 286.84 211 271.75 211 271.75 211 Z M 271.75 135.66 C 271.75 135.66 181.16 135.66 181.16 135.66 C 181.16 135.66 181.16 195.94 181.16 195.94 C 181.16 195.94 271.75 195.94 271.75 195.94 C 271.75 195.94 271.75 135.66 271.75 135.66 Z M 256.66 30.16 C 256.66 30.16 271.75 30.16 271.75 30.16 C 271.75 30.16 271.75 60.28 271.75 60.28 C 271.75 60.28 256.66 60.28 256.66 60.28 C 256.66 60.28 256.66 30.16 256.66 30.16 Z M 241.56 15.06 C 241.56 15.06 256.66 15.06 256.66 15.06 C 256.66 15.06 256.66 30.16 256.66 30.16 C 256.66 30.16 241.56 30.16 241.56 30.16 C 241.56 30.16 241.56 15.06 241.56 15.06 Z M 211.38 30.16 C 211.38 30.16 196.28 30.16 196.28 30.16 C 196.28 30.16 196.28 15.06 196.28 15.06 C 196.28 15.06 120.78 15.06 120.78 15.06 C 120.78 15.06 120.78 0 120.78 0 C 120.78 0 241.56 0 241.56 0 C 241.56 0 241.56 15.06 241.56 15.06 C 241.56 15.06 211.38 15.06 211.38 15.06 C 211.38 15.06 211.38 30.16 211.38 30.16 Z M 45.28 30.16 C 45.28 30.16 45.28 15.06 45.28 15.06 C 45.28 15.06 120.78 15.06 120.78 15.06 C 120.78 15.06 120.78 30.16 120.78 30.16 C 120.78 30.16 45.28 30.16 45.28 30.16 Z M 30.19 45.22 C 30.19 45.22 30.19 30.16 30.19 30.16 C 30.19 30.16 45.28 30.16 45.28 30.16 C 45.28 30.16 45.28 45.22 45.28 45.22 C 45.28 45.22 30.19 45.22 30.19 45.22 Z M 15.09 75.34 C 15.09 75.34 15.09 45.22 15.09 45.22 C 15.09 45.22 30.19 45.22 30.19 45.22 C 30.19 45.22 30.19 75.34 30.19 75.34 C 30.19 75.34 15.09 75.34 15.09 75.34 Z M 196.28 30.16 C 196.28 30.16 196.28 60.28 196.28 60.28 C 196.28 60.28 181.16 60.28 181.16 60.28 C 181.16 60.28 181.16 30.16 181.16 30.16 C 181.16 30.16 196.28 30.16 196.28 30.16 Z" />
    <path fill="#d49f07" fill-rule="evenodd" d="M 30.19 135.66 C 30.19 135.66 166.06 135.66 166.06 135.66 C 166.06 135.66 166.06 195.94 166.06 195.94 C 166.06 195.94 30.19 195.94 30.19 195.94 C 30.19 195.94 30.19 135.66 30.19 135.66 Z" />
    <path fill="#bb8c08" fill-rule="evenodd" d="M 105.69 150.72 C 105.69 150.72 105.69 135.66 105.69 135.66 C 105.69 135.66 166.06 135.66 166.06 135.66 C 166.06 135.66 166.06 150.72 166.06 150.72 C 166.06 150.72 105.69 150.72 105.69 150.72 Z M 45.28 165.78 C 45.28 165.78 45.28 150.72 45.28 150.72 C 45.28 150.72 105.69 150.72 105.69 150.72 C 105.69 150.72 105.69 165.78 105.69 165.78 C 105.69 165.78 45.28 165.78 45.28 165.78 Z M 30.19 135.66 C 30.19 135.66 45.28 135.66 45.28 135.66 C 45.28 135.66 45.28 150.72 45.28 150.72 C 45.28 150.72 30.19 150.72 30.19 150.72 C 30.19 150.72 30.19 135.66 30.19 135.66 Z" />
    <path fill="#4f4f4f" fill-rule="evenodd" d="M 90.59 150.72 C 90.59 150.72 60.38 150.72 60.38 150.72 C 60.38 150.72 45.28 150.72 45.28 150.72 C 45.28 150.72 45.28 105.5 45.28 105.5 C 45.28 105.5 45.28 90.44 45.28 90.44 C 45.28 90.44 60.38 90.44 60.38 90.44 C 60.38 90.44 105.69 90.44 105.69 90.44 C 105.69 90.44 105.69 105.5 105.69 105.5 C 105.69 105.5 105.69 150.72 105.69 150.72 C 105.69 150.72 90.59 150.72 90.59 150.72 Z M 90.59 105.5 C 90.59 105.5 60.38 105.5 60.38 105.5 C 60.38 105.5 60.38 135.66 60.38 135.66 C 60.38 135.66 90.59 135.66 90.59 135.66 C 90.59 135.66 90.59 105.5 90.59 105.5 Z" />
    <path fill="#d1d0cf" fill-rule="evenodd" d="M 60.38 105.5 C 60.38 105.5 90.59 105.5 90.59 105.5 C 90.59 105.5 90.59 135.66 90.59 135.66 C 90.59 135.66 60.38 135.66 60.38 135.66 C 60.38 135.66 60.38 105.5 60.38 105.5 Z" />
    <path fill="#ffffff" fill-rule="evenodd" d="M 60.38 105.5 C 60.38 105.5 75.5 105.5 75.5 105.5 C 75.5 105.5 75.5 120.56 75.5 120.56 C 75.5 120.56 60.38 120.56 60.38 120.56 C 60.38 120.56 60.38 105.5 60.38 105.5 Z" />
</svg>