<svg height="211" width="619" xmlns="http://www.w3.org/2000/svg" viewBox="0 0 619 211"><path fill="#ffbd00" fill-rule="evenodd" d="M181.16 30.16v30.12h-15.1v60.28H45.28 30.19h-15.1V75.34h15.1V45.22h15.09V30.16h75.5v-15.1h75.5v15.1h-15.12z"/><path fill="#d49f07" fill-rule="evenodd" d="M181.16 120.56V60.28h15.12V30.16h15.1v-15.1h30.18v15.1h15.1v30.12h15.09v60.28h-90.59z"/><path fill="#bb8c08" fill-rule="evenodd" d="M181.16 135.66h90.59v60.28h-90.59v-60.28z"/><path fill="#a57c08" fill-rule="evenodd" d="M181.16 135.66h90.59v15.06h-90.59v-15.06z"/><path fill="#4f4f4f" fill-rule="evenodd" d="M619 120.56h-30.19-15.09V105.5 45.22h15.09v60.28H619v15.06zm-105.69 0V105.5 90.44v-15.1-15.06-15.06h45.32v15.06h-30.22v15.06h30.22v15.1h-30.22v15.06h30.22v15.06h-30.22-15.1zm-30.18-30.12h15.09v30.12h-15.09V90.44zm-45.29 30.12V90.44h15.1v30.12h-15.1zm15.1-45.22h30.19v15.1h-30.19v-15.1zm-15.1-30.12h15.1v30.12h-15.1V45.22zm60.38 0v30.12h-15.09V45.22h15.09zm-105.69 75.34h-15.09V105.5h15.09V60.28h-15.09V45.22h45.28v15.06h-15.09v45.22h15.09v15.06h-15.09-15.1zm-60.37-30.12v30.12h-15.1V60.28 45.22h45.28v45.22h-15.09-15.09zm15.09-30.16h-15.09v15.06h15.09V60.28z"/><path fill="#ffbd00" fill-rule="evenodd" d="M603.91 150.72V211h-15.1v-60.28h-15.09v-15.06H619v15.06h-15.09zM513.31 211v-15.06h30.19v-15.1h15.13V211H543.5h-30.19zm15.1-45.22h15.09v15.06h-15.09v-15.06zm-15.1-15.06v-15.06h45.32v15.06h-30.22v15.06h-15.1v-15.06zM452.94 211v-15.06-15.1-15.06-15.06-15.06h45.28v15.06h-30.19v15.06h30.19v15.06h-30.19v15.1h30.19V211h-30.19-15.09zm-30.22-30.16h-30.19V211h-15.09v-30.16-15.06-30.12h15.09v30.12h30.19v-30.12h15.12V211h-15.12v-30.16zM317.06 211v-60.28-15.06h45.28v15.06h-30.18v45.22h30.18V211h-30.18-15.1z"/><path fill="#964b32" fill-rule="evenodd" d="M271.75 211H30.19h-15.1v-75.34H0v-15.1-45.22h15.09v45.22H45.28v15.1H30.19v60.28h135.87v-60.28h-60.37v-15.1h60.37V60.28h15.1v60.28h90.59V60.28h15.09V211h-15.09zm0-75.34h-90.59v60.28h90.59v-60.28zm-15.09-105.5h15.09v30.12h-15.09V30.16zm-15.1-15.1h15.1v15.1h-15.1v-15.1zm-30.18 15.1h-15.1v-15.1h-75.5V0h120.78v15.06h-30.18v15.1zm-166.1 0v-15.1h75.5v15.1h-75.5zM30.19 45.22V30.16h15.09v15.06H30.19zm-15.1 30.12V45.22h15.1v30.12h-15.1zm181.19-45.18v30.12h-15.12V30.16h15.12z"/><path fill="#d49f07" fill-rule="evenodd" d="M30.19 135.66h135.87v60.28H30.19v-60.28z"/><path fill="#bb8c08" fill-rule="evenodd" d="M105.69 150.72v-15.06h60.37v15.06h-60.37zm-60.41 15.06v-15.06h60.41v15.06H45.28zm-15.09-30.12h15.09v15.06H30.19v-15.06z"/><path fill="#4f4f4f" fill-rule="evenodd" d="M90.59 150.72H60.38h-15.1V105.5 90.44H105.69v60.28h-15.1zm0-45.22H60.38v30.16h30.21V105.5z"/><path fill="#d1d0cf" fill-rule="evenodd" d="M60.38 105.5h30.21v30.16H60.38V105.5z"/><path fill="#fff" fill-rule="evenodd" d="M60.38 105.5H75.5v15.06H60.38V105.5z"/></svg>